<mxfile host="65bd71144e">
    <diagram id="zKcoLWqiSKD96VhDF7Qv" name="Page-1">
        <mxGraphModel dx="549" dy="423" grid="0" gridSize="10" guides="1" tooltips="1" connect="1" arrows="1" fold="1" page="1" pageScale="1" pageWidth="850" pageHeight="1100" math="0" shadow="0">
            <root>
                <mxCell id="0"/>
                <mxCell id="1" parent="0"/>
                <mxCell id="2" value="" style="line;strokeWidth=2;direction=south;html=1;" vertex="1" parent="1">
                    <mxGeometry x="160" y="410" width="10" height="210" as="geometry"/>
                </mxCell>
                <mxCell id="3" value="client" style="text;strokeColor=none;fillColor=none;html=1;fontSize=24;fontStyle=1;verticalAlign=middle;align=center;" vertex="1" parent="1">
                    <mxGeometry x="120" y="350" width="100" height="40" as="geometry"/>
                </mxCell>
                <mxCell id="4" value="" style="line;strokeWidth=2;direction=south;html=1;" vertex="1" parent="1">
                    <mxGeometry x="420" y="410" width="10" height="200" as="geometry"/>
                </mxCell>
                <mxCell id="5" value="server" style="text;strokeColor=none;fillColor=none;html=1;fontSize=24;fontStyle=1;verticalAlign=middle;align=center;" vertex="1" parent="1">
                    <mxGeometry x="380" y="350" width="100" height="40" as="geometry"/>
                </mxCell>
                <mxCell id="6" value="" style="endArrow=classic;html=1;exitX=0.112;exitY=0.483;exitDx=0;exitDy=0;exitPerimeter=0;strokeWidth=3;entryX=0.25;entryY=0.5;entryDx=0;entryDy=0;entryPerimeter=0;" edge="1" parent="1" source="2" target="4">
                    <mxGeometry width="50" height="50" relative="1" as="geometry">
                        <mxPoint x="400" y="510" as="sourcePoint"/>
                        <mxPoint x="420" y="460" as="targetPoint"/>
                    </mxGeometry>
                </mxCell>
                <mxCell id="7" value="send 20MB" style="text;html=1;strokeColor=none;fillColor=none;align=center;verticalAlign=middle;whiteSpace=wrap;rounded=0;" vertex="1" parent="1">
                    <mxGeometry x="220" y="420" width="150" height="30" as="geometry"/>
                </mxCell>
                <mxCell id="8" value="recv buffer:6m" style="rounded=0;whiteSpace=wrap;html=1;" vertex="1" parent="1">
                    <mxGeometry x="200" y="330" width="90" height="30" as="geometry"/>
                </mxCell>
                <mxCell id="11" value="send buffer:4m" style="rounded=0;whiteSpace=wrap;html=1;" vertex="1" parent="1">
                    <mxGeometry x="310" y="330" width="90" height="30" as="geometry"/>
                </mxCell>
                <mxCell id="14" value="" style="endArrow=classic;html=1;strokeWidth=3;exitX=0.388;exitY=0.483;exitDx=0;exitDy=0;exitPerimeter=0;" edge="1" parent="1" source="4">
                    <mxGeometry width="50" height="50" relative="1" as="geometry">
                        <mxPoint x="400" y="490" as="sourcePoint"/>
                        <mxPoint x="169" y="544" as="targetPoint"/>
                    </mxGeometry>
                </mxCell>
                <mxCell id="15" value="recv buffer is full" style="rounded=0;whiteSpace=wrap;html=1;" vertex="1" parent="1">
                    <mxGeometry x="430" y="450" width="100" height="30" as="geometry"/>
                </mxCell>
                <mxCell id="17" value="recv buffer is full" style="rounded=0;whiteSpace=wrap;html=1;" vertex="1" parent="1">
                    <mxGeometry x="60" y="535" width="100" height="30" as="geometry"/>
                </mxCell>
                <mxCell id="18" value="send buffer is full" style="rounded=0;whiteSpace=wrap;html=1;" vertex="1" parent="1">
                    <mxGeometry x="60" y="420" width="100" height="30" as="geometry"/>
                </mxCell>
            </root>
        </mxGraphModel>
    </diagram>
</mxfile>